<mxfile host="app.diagrams.net" agent="Mozilla/5.0 (X11; Linux x86_64; rv:140.0) Gecko/20100101 Firefox/140.0" version="27.2.0">
  <diagram name="Page-1" id="SzueW1SM6hM763Pxhy5c">
    <mxGraphModel dx="1042" dy="551" grid="1" gridSize="10" guides="1" tooltips="1" connect="1" arrows="1" fold="1" page="1" pageScale="1" pageWidth="850" pageHeight="1100" math="0" shadow="0">
      <root>
        <mxCell id="0" />
        <mxCell id="1" parent="0" />
        <mxCell id="GBIPSbXab3KC97k9x2ti-20" style="edgeStyle=orthogonalEdgeStyle;rounded=0;orthogonalLoop=1;jettySize=auto;html=1;exitX=1;exitY=0.5;exitDx=0;exitDy=0;entryX=0;entryY=0.5;entryDx=0;entryDy=0;fontFamily=Times New Roman;endArrow=block;endFill=1;" edge="1" parent="1" source="GBIPSbXab3KC97k9x2ti-12" target="GBIPSbXab3KC97k9x2ti-6">
          <mxGeometry relative="1" as="geometry" />
        </mxCell>
        <mxCell id="GBIPSbXab3KC97k9x2ti-58" value="" style="group;fontFamily=Times New Roman;" vertex="1" connectable="0" parent="1">
          <mxGeometry x="281" y="20" width="120" height="90" as="geometry" />
        </mxCell>
        <mxCell id="GBIPSbXab3KC97k9x2ti-12" value="Limpieza" style="rounded=0;whiteSpace=wrap;html=1;fontFamily=Times New Roman;fillColor=#f8cecc;strokeColor=#b85450;" vertex="1" parent="GBIPSbXab3KC97k9x2ti-58">
          <mxGeometry y="10" width="120" height="40" as="geometry" />
        </mxCell>
        <mxCell id="GBIPSbXab3KC97k9x2ti-41" value="(a)" style="text;html=1;align=center;verticalAlign=middle;whiteSpace=wrap;rounded=0;fontFamily=Times New Roman;" vertex="1" parent="GBIPSbXab3KC97k9x2ti-58">
          <mxGeometry x="36" y="50" width="48" height="30" as="geometry" />
        </mxCell>
        <mxCell id="GBIPSbXab3KC97k9x2ti-59" value="" style="group;fontFamily=Times New Roman;" vertex="1" connectable="0" parent="1">
          <mxGeometry x="441" y="30" width="120" height="70" as="geometry" />
        </mxCell>
        <mxCell id="GBIPSbXab3KC97k9x2ti-6" value="Remuestreo" style="rounded=0;whiteSpace=wrap;html=1;fontFamily=Times New Roman;fillColor=#f8cecc;strokeColor=#b85450;" vertex="1" parent="GBIPSbXab3KC97k9x2ti-59">
          <mxGeometry width="120" height="40" as="geometry" />
        </mxCell>
        <mxCell id="GBIPSbXab3KC97k9x2ti-42" value="(b)" style="text;html=1;align=center;verticalAlign=middle;whiteSpace=wrap;rounded=0;fontFamily=Times New Roman;" vertex="1" parent="GBIPSbXab3KC97k9x2ti-59">
          <mxGeometry x="36" y="40" width="48" height="30" as="geometry" />
        </mxCell>
        <mxCell id="GBIPSbXab3KC97k9x2ti-60" style="edgeStyle=orthogonalEdgeStyle;rounded=0;orthogonalLoop=1;jettySize=auto;html=1;exitX=1;exitY=0.5;exitDx=0;exitDy=0;entryX=0;entryY=0.5;entryDx=0;entryDy=0;fontFamily=Times New Roman;endArrow=block;endFill=1;" edge="1" parent="1" source="GBIPSbXab3KC97k9x2ti-6" target="GBIPSbXab3KC97k9x2ti-7">
          <mxGeometry relative="1" as="geometry" />
        </mxCell>
        <mxCell id="GBIPSbXab3KC97k9x2ti-61" value="" style="group;fontFamily=Times New Roman;" vertex="1" connectable="0" parent="1">
          <mxGeometry x="601" y="30" width="120" height="70" as="geometry" />
        </mxCell>
        <mxCell id="GBIPSbXab3KC97k9x2ti-7" value="Reparación" style="rounded=0;whiteSpace=wrap;html=1;fontFamily=Times New Roman;fillColor=#f8cecc;strokeColor=#b85450;" vertex="1" parent="GBIPSbXab3KC97k9x2ti-61">
          <mxGeometry width="120" height="40" as="geometry" />
        </mxCell>
        <mxCell id="GBIPSbXab3KC97k9x2ti-43" value="(c)" style="text;html=1;align=center;verticalAlign=middle;whiteSpace=wrap;rounded=0;fontFamily=Times New Roman;" vertex="1" parent="GBIPSbXab3KC97k9x2ti-61">
          <mxGeometry x="36" y="40" width="48" height="30" as="geometry" />
        </mxCell>
        <mxCell id="GBIPSbXab3KC97k9x2ti-64" value="" style="group;fontFamily=Times New Roman;" vertex="1" connectable="0" parent="1">
          <mxGeometry x="616" y="150" width="90" height="70" as="geometry" />
        </mxCell>
        <mxCell id="GBIPSbXab3KC97k9x2ti-11" value="&lt;div&gt;¿Recortar?&lt;/div&gt;" style="rhombus;whiteSpace=wrap;html=1;fontFamily=Times New Roman;fillColor=#fff2cc;strokeColor=#d6b656;" vertex="1" parent="GBIPSbXab3KC97k9x2ti-64">
          <mxGeometry width="90" height="40" as="geometry" />
        </mxCell>
        <mxCell id="GBIPSbXab3KC97k9x2ti-65" value="" style="group;fontFamily=Times New Roman;" vertex="1" connectable="0" parent="1">
          <mxGeometry x="441" y="182.5" width="120" height="50" as="geometry" />
        </mxCell>
        <mxCell id="GBIPSbXab3KC97k9x2ti-33" value="Reducción" style="rounded=0;whiteSpace=wrap;html=1;fontFamily=Times New Roman;fillColor=#f8cecc;strokeColor=#b85450;" vertex="1" parent="GBIPSbXab3KC97k9x2ti-65">
          <mxGeometry width="120" height="20" as="geometry" />
        </mxCell>
        <mxCell id="GBIPSbXab3KC97k9x2ti-51" value="(e)" style="text;html=1;align=center;verticalAlign=middle;whiteSpace=wrap;rounded=0;fontFamily=Times New Roman;" vertex="1" parent="GBIPSbXab3KC97k9x2ti-65">
          <mxGeometry x="30" y="20" width="60" height="30" as="geometry" />
        </mxCell>
        <mxCell id="GBIPSbXab3KC97k9x2ti-67" value="" style="group;fontFamily=Times New Roman;" vertex="1" connectable="0" parent="1">
          <mxGeometry x="441" y="137.5" width="120" height="50" as="geometry" />
        </mxCell>
        <mxCell id="GBIPSbXab3KC97k9x2ti-9" value="Recorte" style="rounded=0;whiteSpace=wrap;html=1;fontFamily=Times New Roman;fillColor=#f8cecc;strokeColor=#b85450;" vertex="1" parent="GBIPSbXab3KC97k9x2ti-67">
          <mxGeometry width="120" height="20" as="geometry" />
        </mxCell>
        <mxCell id="GBIPSbXab3KC97k9x2ti-68" value="" style="group;fontFamily=Times New Roman;" vertex="1" connectable="0" parent="1">
          <mxGeometry x="281" y="155" width="120" height="70" as="geometry" />
        </mxCell>
        <mxCell id="GBIPSbXab3KC97k9x2ti-13" value="&lt;div&gt;Conversión&amp;nbsp;&lt;/div&gt;&lt;div&gt;de Formato&lt;/div&gt;" style="rounded=0;whiteSpace=wrap;html=1;fontFamily=Times New Roman;fillColor=#f8cecc;strokeColor=#b85450;" vertex="1" parent="GBIPSbXab3KC97k9x2ti-68">
          <mxGeometry width="120" height="40" as="geometry" />
        </mxCell>
        <mxCell id="GBIPSbXab3KC97k9x2ti-52" value="(f)" style="text;html=1;align=center;verticalAlign=middle;whiteSpace=wrap;rounded=0;fontFamily=Times New Roman;" vertex="1" parent="GBIPSbXab3KC97k9x2ti-68">
          <mxGeometry x="30" y="40" width="60" height="30" as="geometry" />
        </mxCell>
        <mxCell id="GBIPSbXab3KC97k9x2ti-50" value="(d)" style="text;html=1;align=center;verticalAlign=middle;whiteSpace=wrap;rounded=0;fontFamily=Times New Roman;" vertex="1" parent="1">
          <mxGeometry x="471" y="107.5" width="60" height="30" as="geometry" />
        </mxCell>
        <mxCell id="GBIPSbXab3KC97k9x2ti-73" style="edgeStyle=orthogonalEdgeStyle;rounded=0;orthogonalLoop=1;jettySize=auto;html=1;exitX=0.5;exitY=1;exitDx=0;exitDy=0;entryX=0.5;entryY=0;entryDx=0;entryDy=0;fontFamily=Times New Roman;endArrow=block;endFill=1;" edge="1" parent="1" source="GBIPSbXab3KC97k9x2ti-9" target="GBIPSbXab3KC97k9x2ti-33">
          <mxGeometry relative="1" as="geometry" />
        </mxCell>
        <mxCell id="GBIPSbXab3KC97k9x2ti-79" style="edgeStyle=orthogonalEdgeStyle;rounded=0;orthogonalLoop=1;jettySize=auto;html=1;exitX=0;exitY=0.5;exitDx=0;exitDy=0;entryX=1;entryY=0.5;entryDx=0;entryDy=0;fontFamily=Times New Roman;endArrow=block;endFill=1;" edge="1" parent="1" source="GBIPSbXab3KC97k9x2ti-13" target="GBIPSbXab3KC97k9x2ti-54">
          <mxGeometry relative="1" as="geometry" />
        </mxCell>
        <mxCell id="GBIPSbXab3KC97k9x2ti-80" style="edgeStyle=orthogonalEdgeStyle;rounded=0;orthogonalLoop=1;jettySize=auto;html=1;exitX=0;exitY=0.5;exitDx=0;exitDy=0;entryX=1;entryY=0.5;entryDx=0;entryDy=0;fontFamily=Times New Roman;endArrow=block;endFill=1;" edge="1" parent="1" source="GBIPSbXab3KC97k9x2ti-11" target="GBIPSbXab3KC97k9x2ti-9">
          <mxGeometry relative="1" as="geometry" />
        </mxCell>
        <mxCell id="GBIPSbXab3KC97k9x2ti-88" value="Sí" style="edgeLabel;html=1;align=center;verticalAlign=middle;resizable=0;points=[];fontFamily=Times New Roman;" vertex="1" connectable="0" parent="GBIPSbXab3KC97k9x2ti-80">
          <mxGeometry x="0.2903" relative="1" as="geometry">
            <mxPoint x="-8" y="-10" as="offset" />
          </mxGeometry>
        </mxCell>
        <mxCell id="GBIPSbXab3KC97k9x2ti-81" style="edgeStyle=orthogonalEdgeStyle;rounded=0;orthogonalLoop=1;jettySize=auto;html=1;exitX=0;exitY=0.5;exitDx=0;exitDy=0;entryX=1;entryY=0.5;entryDx=0;entryDy=0;fontFamily=Times New Roman;endArrow=block;endFill=1;" edge="1" parent="1" source="GBIPSbXab3KC97k9x2ti-11" target="GBIPSbXab3KC97k9x2ti-33">
          <mxGeometry relative="1" as="geometry" />
        </mxCell>
        <mxCell id="GBIPSbXab3KC97k9x2ti-89" value="No" style="edgeLabel;html=1;align=center;verticalAlign=middle;resizable=0;points=[];fontFamily=Times New Roman;" vertex="1" connectable="0" parent="GBIPSbXab3KC97k9x2ti-81">
          <mxGeometry x="0.3692" y="-1" relative="1" as="geometry">
            <mxPoint x="-5" y="11" as="offset" />
          </mxGeometry>
        </mxCell>
        <mxCell id="GBIPSbXab3KC97k9x2ti-82" style="edgeStyle=orthogonalEdgeStyle;rounded=0;orthogonalLoop=1;jettySize=auto;html=1;exitX=1;exitY=0.5;exitDx=0;exitDy=0;entryX=1;entryY=0.5;entryDx=0;entryDy=0;fontFamily=Times New Roman;endArrow=block;endFill=1;" edge="1" parent="1" source="GBIPSbXab3KC97k9x2ti-7" target="GBIPSbXab3KC97k9x2ti-11">
          <mxGeometry relative="1" as="geometry" />
        </mxCell>
        <mxCell id="GBIPSbXab3KC97k9x2ti-83" style="edgeStyle=orthogonalEdgeStyle;rounded=0;orthogonalLoop=1;jettySize=auto;html=1;exitX=0;exitY=0.5;exitDx=0;exitDy=0;entryX=1;entryY=0.5;entryDx=0;entryDy=0;fontFamily=Times New Roman;endArrow=block;endFill=1;" edge="1" parent="1" source="GBIPSbXab3KC97k9x2ti-33" target="GBIPSbXab3KC97k9x2ti-13">
          <mxGeometry relative="1" as="geometry" />
        </mxCell>
        <mxCell id="GBIPSbXab3KC97k9x2ti-84" style="edgeStyle=orthogonalEdgeStyle;rounded=0;orthogonalLoop=1;jettySize=auto;html=1;exitX=1;exitY=0.5;exitDx=0;exitDy=0;entryX=0;entryY=0.5;entryDx=0;entryDy=0;fontFamily=Times New Roman;endArrow=block;endFill=1;" edge="1" parent="1" source="GBIPSbXab3KC97k9x2ti-18" target="GBIPSbXab3KC97k9x2ti-12">
          <mxGeometry relative="1" as="geometry" />
        </mxCell>
        <mxCell id="GBIPSbXab3KC97k9x2ti-86" value="" style="group" vertex="1" connectable="0" parent="1">
          <mxGeometry x="130" y="155" width="120" height="70" as="geometry" />
        </mxCell>
        <mxCell id="GBIPSbXab3KC97k9x2ti-54" value="Malla Preparada" style="shape=parallelogram;perimeter=parallelogramPerimeter;whiteSpace=wrap;html=1;fixedSize=1;fontFamily=Times New Roman;fillColor=#d5e8d4;strokeColor=#82b366;" vertex="1" parent="GBIPSbXab3KC97k9x2ti-86">
          <mxGeometry width="120" height="40" as="geometry" />
        </mxCell>
        <mxCell id="GBIPSbXab3KC97k9x2ti-87" value="" style="group" vertex="1" connectable="0" parent="1">
          <mxGeometry x="131" y="30" width="120" height="70" as="geometry" />
        </mxCell>
        <mxCell id="GBIPSbXab3KC97k9x2ti-18" value="&lt;div&gt;&lt;font&gt;Escaneo 3D&lt;/font&gt;&lt;/div&gt;" style="shape=parallelogram;perimeter=parallelogramPerimeter;whiteSpace=wrap;html=1;fixedSize=1;fontFamily=Times New Roman;fillColor=#d5e8d4;strokeColor=#82b366;" vertex="1" parent="GBIPSbXab3KC97k9x2ti-87">
          <mxGeometry width="120" height="40" as="geometry" />
        </mxCell>
      </root>
    </mxGraphModel>
  </diagram>
</mxfile>
